#format: frame checksums
#version: 1
#hash: MD5
#tb 0: 1/30
#stream#, dts,        pts, duration,     size, hash
0,          0,          0,        1,    38016, 905a823da31f71f9c25ebb8dfc9ddd3c
0,          1,          1,        1,    38016, 9a1b97859b2f774954dbf96f45a22a0a
0,          2,          2,        1,    38016, f0f5651b32577549dc2e6e3050125229
0,          3,          3,        1,    38016, 9edf800d31dc653a23ed71d0f3fc32e4
0,          4,          4,        1,    38016, 78dd1fa96e63c177f2b90d702c92f48c
0,          5,          5,        1,    38016, e1cec336383c4ea63ccaff8bfa5c8e24
0,          6,          6,        1,    38016, e8b5a454e178ab7ba9b83dfc10b4171e
0,          7,          7,        1,    38016, 572dbaaf319f1681749135c49940c64e
0,          8,          8,        1,    38016, b0e8313de033cc75a78532789bb6a3cb
0,          9,          9,        1,    38016, ffc5581d83ff67b549d63c7de1a1e8cb
0,         10,         10,        1,    38016, 8ae3fcd3d74947d434b7c5f9ee08bbbf
0,         11,         11,        1,    38016, 3adff74d92ae0a463dddc6f89965f706
0,         12,         12,        1,    38016, f08355430fdf5bb16a91eef05f03186b
0,         13,         13,        1,    38016, d477eb8150a1a94dd6af7f067e8c0429
0,         14,         14,        1,    38016, f860f225e27871a17060373b79007ec6
0,         15,         15,        1,    38016, 22a25c07ac5e7c67df793e0d3169386c
0,         16,         16,        1,    38016, a96f9cef4efe74db0cce039c85c03c4d
0,         17,         17,        1,    38016, ff9c93cbc364976044144ee631f89bd2
0,         18,         18,        1,    38016, 3a6b43090adb6c8b5188d544a08295a8
0,         19,         19,        1,    38016, 7f41a10ada80865d24585860065aa5e4
0,         20,         20,        1,    38016, 099847f606672fd065e6841000cafcb3
0,         21,         21,        1,    38016, fbf543c12ce48633e6d10717862c35a7
0,         22,         22,        1,    38016, 1b9956d8a6c45e39d219da33ff7c334a
0,         23,         23,        1,    38016, 911eb8f478485c0f4eef1d03f53aa80b
0,         24,         24,        1,    38016, b801570a437439ce12c5037df0235742
0,         25,         25,        1,    38016, 8d231805d741abe79670a0e9f13712ea
0,         26,         26,        1,    38016, 87bfcc2c88c4471067c07fbcf635870d
0,         27,         27,        1,    38016, d51b6999afde880bc77597063b58d28f
0,         28,         28,        1,    38016, c69c07a34bfad3b5a95b19a84e991c13
